<mxfile host="app.diagrams.net" modified="2022-04-29T17:58:14.531Z" agent="5.0 (Windows NT 10.0; Win64; x64) AppleWebKit/537.36 (KHTML, like Gecko) Chrome/100.0.4896.127 Safari/537.36" etag="j3m1_qua8KRx_7jBRqta" version="17.5.0" type="github">
  <diagram id="QgBXJNmuF9LUyoV8QWzJ" name="Page-1">
    <mxGraphModel dx="818" dy="1121" grid="1" gridSize="10" guides="1" tooltips="1" connect="1" arrows="1" fold="1" page="1" pageScale="1" pageWidth="827" pageHeight="1169" math="0" shadow="0">
      <root>
        <mxCell id="0" />
        <mxCell id="1" parent="0" />
        <mxCell id="U1BTU91VVIOKNPWe-Cvb-1" value="" style="rounded=0;whiteSpace=wrap;html=1;" vertex="1" parent="1">
          <mxGeometry x="90" y="160" width="700" height="1720" as="geometry" />
        </mxCell>
        <mxCell id="U1BTU91VVIOKNPWe-Cvb-4" value="" style="rounded=0;whiteSpace=wrap;html=1;fillColor=#f5f5f5;fontColor=#333333;strokeColor=#666666;" vertex="1" parent="1">
          <mxGeometry x="130" y="790" width="630" height="980" as="geometry" />
        </mxCell>
        <mxCell id="U1BTU91VVIOKNPWe-Cvb-21" style="edgeStyle=orthogonalEdgeStyle;rounded=0;orthogonalLoop=1;jettySize=auto;html=1;fontSize=17;" edge="1" parent="1" source="U1BTU91VVIOKNPWe-Cvb-2" target="U1BTU91VVIOKNPWe-Cvb-18">
          <mxGeometry relative="1" as="geometry" />
        </mxCell>
        <mxCell id="U1BTU91VVIOKNPWe-Cvb-2" value="" style="rounded=0;whiteSpace=wrap;html=1;fillColor=#f5f5f5;fontColor=#333333;strokeColor=#666666;" vertex="1" parent="1">
          <mxGeometry x="130" y="300" width="630" height="430" as="geometry" />
        </mxCell>
        <mxCell id="U1BTU91VVIOKNPWe-Cvb-3" value="&lt;font style=&quot;font-size: 20px&quot;&gt;CreateMedia&lt;/font&gt;" style="rounded=0;whiteSpace=wrap;html=1;fillColor=#ffe6cc;strokeColor=#d79b00;" vertex="1" parent="1">
          <mxGeometry x="245" y="860" width="400" height="60" as="geometry" />
        </mxCell>
        <mxCell id="U1BTU91VVIOKNPWe-Cvb-6" value="BeforeEach" style="rounded=0;whiteSpace=wrap;html=1;fontSize=20;fillColor=#e1d5e7;strokeColor=#9673a6;" vertex="1" parent="1">
          <mxGeometry x="130" y="300" width="630" height="40" as="geometry" />
        </mxCell>
        <mxCell id="U1BTU91VVIOKNPWe-Cvb-7" value="ContentItem" style="rounded=0;whiteSpace=wrap;html=1;fontSize=17;fillColor=#d5e8d4;strokeColor=#82b366;" vertex="1" parent="1">
          <mxGeometry x="130" y="230" width="120" height="40" as="geometry" />
        </mxCell>
        <mxCell id="U1BTU91VVIOKNPWe-Cvb-8" value="ErrorHangling.test.js" style="rounded=0;whiteSpace=wrap;html=1;fontSize=20;fillColor=#f8cecc;strokeColor=#b85450;" vertex="1" parent="1">
          <mxGeometry x="100" y="170" width="190" height="30" as="geometry" />
        </mxCell>
        <mxCell id="U1BTU91VVIOKNPWe-Cvb-9" value="scheduleItem" style="rounded=0;whiteSpace=wrap;html=1;fontSize=17;fillColor=#d5e8d4;strokeColor=#82b366;" vertex="1" parent="1">
          <mxGeometry x="260" y="230" width="120" height="40" as="geometry" />
        </mxCell>
        <mxCell id="U1BTU91VVIOKNPWe-Cvb-10" value="AWS" style="rounded=0;whiteSpace=wrap;html=1;fontSize=17;fillColor=#dae8fc;strokeColor=#6c8ebf;" vertex="1" parent="1">
          <mxGeometry x="230" y="360" width="170" height="60" as="geometry" />
        </mxCell>
        <mxCell id="U1BTU91VVIOKNPWe-Cvb-11" value="delete and create schedule and content Items" style="rounded=0;whiteSpace=wrap;html=1;fontSize=17;fillColor=#fff2cc;strokeColor=#d6b656;" vertex="1" parent="1">
          <mxGeometry x="440" y="360" width="230" height="60" as="geometry" />
        </mxCell>
        <mxCell id="U1BTU91VVIOKNPWe-Cvb-12" value="deleteStreamSave" style="rounded=0;whiteSpace=wrap;html=1;fontSize=17;fillColor=#fff2cc;strokeColor=#d6b656;" vertex="1" parent="1">
          <mxGeometry x="440" y="430" width="230" height="60" as="geometry" />
        </mxCell>
        <mxCell id="U1BTU91VVIOKNPWe-Cvb-13" value="DynamoDB" style="rounded=0;whiteSpace=wrap;html=1;fontSize=17;fillColor=#dae8fc;strokeColor=#6c8ebf;" vertex="1" parent="1">
          <mxGeometry x="230" y="430" width="170" height="60" as="geometry" />
        </mxCell>
        <mxCell id="U1BTU91VVIOKNPWe-Cvb-14" value="deleteStreamSave" style="rounded=0;whiteSpace=wrap;html=1;fontSize=17;fillColor=#fff2cc;strokeColor=#d6b656;" vertex="1" parent="1">
          <mxGeometry x="440" y="500" width="230" height="60" as="geometry" />
        </mxCell>
        <mxCell id="U1BTU91VVIOKNPWe-Cvb-15" value="AWS StepFunctions" style="rounded=0;whiteSpace=wrap;html=1;fontSize=17;fillColor=#dae8fc;strokeColor=#6c8ebf;" vertex="1" parent="1">
          <mxGeometry x="230" y="500" width="170" height="60" as="geometry" />
        </mxCell>
        <mxCell id="U1BTU91VVIOKNPWe-Cvb-17" value="add Date values to scheduleItem" style="rounded=0;whiteSpace=wrap;html=1;fontSize=17;" vertex="1" parent="1">
          <mxGeometry x="230" y="575" width="440" height="40" as="geometry" />
        </mxCell>
        <mxCell id="U1BTU91VVIOKNPWe-Cvb-18" value="Workflow Lambda Function Errror" style="rounded=0;whiteSpace=wrap;html=1;fontSize=20;fillColor=#e1d5e7;strokeColor=#9673a6;" vertex="1" parent="1">
          <mxGeometry x="130" y="790" width="630" height="50" as="geometry" />
        </mxCell>
        <mxCell id="U1BTU91VVIOKNPWe-Cvb-19" value="AWS" style="rounded=0;whiteSpace=wrap;html=1;fontSize=17;fillColor=#dae8fc;strokeColor=#6c8ebf;" vertex="1" parent="1">
          <mxGeometry x="230" y="630" width="170" height="60" as="geometry" />
        </mxCell>
        <mxCell id="U1BTU91VVIOKNPWe-Cvb-20" value="create content and scheduleItems" style="rounded=0;whiteSpace=wrap;html=1;fontSize=17;fillColor=#fff2cc;strokeColor=#d6b656;" vertex="1" parent="1">
          <mxGeometry x="440" y="630" width="230" height="60" as="geometry" />
        </mxCell>
        <mxCell id="U1BTU91VVIOKNPWe-Cvb-22" value="&lt;font style=&quot;font-size: 20px&quot;&gt;CreateMedia&lt;/font&gt;" style="rounded=0;whiteSpace=wrap;html=1;fillColor=#ffe6cc;strokeColor=#d79b00;" vertex="1" parent="1">
          <mxGeometry x="245" y="1300" width="400" height="60" as="geometry" />
        </mxCell>
        <mxCell id="U1BTU91VVIOKNPWe-Cvb-23" value="&lt;font style=&quot;font-size: 20px&quot;&gt;CreateDerivativeAssets&lt;/font&gt;" style="rounded=0;whiteSpace=wrap;html=1;fillColor=#ffe6cc;strokeColor=#d79b00;" vertex="1" parent="1">
          <mxGeometry x="245" y="1090" width="400" height="60" as="geometry" />
        </mxCell>
        <mxCell id="U1BTU91VVIOKNPWe-Cvb-24" value="&lt;font style=&quot;font-size: 20px&quot;&gt;CreateMedia&lt;/font&gt;" style="rounded=0;whiteSpace=wrap;html=1;fillColor=#ffe6cc;strokeColor=#d79b00;" vertex="1" parent="1">
          <mxGeometry x="245" y="1200" width="400" height="60" as="geometry" />
        </mxCell>
        <mxCell id="U1BTU91VVIOKNPWe-Cvb-25" value="&lt;font style=&quot;font-size: 20px&quot;&gt;Record&lt;/font&gt;" style="rounded=0;whiteSpace=wrap;html=1;fillColor=#ffe6cc;strokeColor=#d79b00;" vertex="1" parent="1">
          <mxGeometry x="245" y="980" width="400" height="60" as="geometry" />
        </mxCell>
      </root>
    </mxGraphModel>
  </diagram>
</mxfile>
